<svg width="400" height="127" xmlns="http://www.w3.org/2000/svg">
 <title>designit</title>

 <g>
  <title>Layer 1</title>
  <g fill="white" id="svg_1">
   <g id="svg_2">
    <path id="svg_3" d="m85.675,105.498c-4.014,0 -7.336,3.391 -7.336,7.613c0,4.221 3.253,7.612 7.336,7.612c4.014,0 7.335,-3.39 7.335,-7.612c0,-4.222 -3.252,-7.613 -7.335,-7.613zm0,11.627c-2.076,0 -3.737,-1.8 -3.737,-4.014c0,-2.215 1.66,-4.014 3.737,-4.014c2.076,0 3.737,1.8 3.737,4.014c0.069,2.214 -1.661,4.014 -3.737,4.014zm-46.021,-11.211l-2.699,0c-0.208,0 -0.484,0.207 -0.554,0.415l-2.214,6.99l-3.806,-7.475a0.826,0.826 0 0 0 -0.623,-0.346l-0.277,0a0.826,0.826 0 0 0 -0.623,0.346l-3.806,7.474l-2.215,-6.99c-0.069,-0.207 -0.346,-0.414 -0.553,-0.414l-2.7,0c-0.345,0 -0.553,0.276 -0.414,0.622l4.429,13.842c0.069,0.208 0.346,0.416 0.553,0.416l0.415,0a0.826,0.826 0 0 0 0.623,-0.346l4.499,-8.79l4.498,8.79a0.826,0.826 0 0 0 0.623,0.346l0.415,0c0.208,0 0.484,-0.208 0.554,-0.416l4.429,-13.84c0,-0.347 -0.208,-0.623 -0.554,-0.623l0,-0.001zm6.367,0l-2.7,0a0.62,0.62 0 0 0 -0.622,0.622l0,13.15a0.62,0.62 0 0 0 0.623,0.622l2.699,0a0.62,0.62 0 0 0 0.623,-0.623l0,-13.149a0.62,0.62 0 0 0 -0.623,-0.622zm11.903,-0.416c-1.869,0 -3.599,0.83 -4.844,2.146l-0.485,-1.315c-0.069,-0.208 -0.346,-0.415 -0.553,-0.415l-1.246,0a0.62,0.62 0 0 0 -0.623,0.622l0,20.762a0.62,0.62 0 0 0 0.623,0.623l2.699,0a0.62,0.62 0 0 0 0.623,-0.623l0,-7.198c1.176,0.416 2.422,0.623 3.737,0.623c3.806,0 6.92,-3.39 6.92,-7.612c0.07,-4.222 -3.045,-7.613 -6.851,-7.613zm-0.761,11.627c-1.108,0 -2.215,-0.277 -3.045,-0.83l0,-5.468a3.521,3.521 0 0 1 3.045,-1.8c2.007,0 3.667,1.8 3.667,4.015c0,2.283 -1.66,4.083 -3.667,4.083zm17.716,-11.627c-2.63,0 -4.152,2.146 -4.152,2.146l-0.485,-1.315c-0.069,-0.208 -0.346,-0.415 -0.553,-0.415l-1.246,0a0.62,0.62 0 0 0 -0.623,0.622l0,13.15a0.62,0.62 0 0 0 0.623,0.622l2.699,0a0.62,0.62 0 0 0 0.623,-0.623l0,-9.204c1.591,-1.938 3.598,-1.315 4.014,-1.107c0.415,0.138 0.692,-0.07 0.83,-0.346c0.138,-0.277 0.692,-1.661 0.969,-2.146c0.207,-0.484 -0.139,-1.384 -2.7,-1.384l0.001,0zm-29.689,-6.366c-1.176,-0.346 -2.353,0.415 -2.699,1.591c-0.346,1.177 0.416,2.422 1.523,2.7c1.176,0.345 2.353,-0.416 2.699,-1.592c0.346,-1.177 -0.346,-2.353 -1.523,-2.7l0,0.001z"/>
    <path id="svg_4" d="m13.287,120.238a3.373,3.373 0 0 1 -0.761,0.278c-0.277,0.069 -0.484,0.069 -0.83,0.069c-0.623,0 -1.177,-0.208 -1.523,-0.623a2.418,2.418 0 0 1 -0.554,-1.522l-0.069,0a4.54,4.54 0 0 1 -1.868,1.73c-0.83,0.415 -1.73,0.623 -2.769,0.623c-0.83,0 -1.522,-0.139 -2.145,-0.416c-0.623,-0.277 -0.969,-0.623 -1.384,-1.038c-0.415,-0.415 -0.692,-0.9 -0.9,-1.453a4.29,4.29 0 0 1 -0.276,-1.592c0,-0.484 0.069,-0.969 0.207,-1.453c0.139,-0.484 0.415,-0.969 0.83,-1.384c0.416,-0.415 0.9,-0.761 1.523,-1.107c0.623,-0.277 1.453,-0.485 2.422,-0.554l4.291,-0.277l0,-1.038c0,-0.346 -0.07,-0.761 -0.138,-1.107a1.64,1.64 0 0 0 -0.623,-1.038c-0.277,-0.208 -0.554,-0.415 -0.9,-0.554c-0.346,-0.138 -0.83,-0.207 -1.453,-0.207c-0.623,0 -1.177,0.069 -1.592,0.207c-0.415,0.139 -0.761,0.346 -0.969,0.623c-0.484,0.484 -0.692,1.038 -0.692,1.73l-2.284,0c0,-0.692 0.139,-1.246 0.346,-1.73c0.208,-0.484 0.485,-0.9 0.9,-1.315a5.08,5.08 0 0 1 1.869,-1.176a7.239,7.239 0 0 1 2.491,-0.416c1.384,0 2.491,0.277 3.322,0.762c0.83,0.553 1.384,1.176 1.73,2.007c0.277,0.692 0.415,1.384 0.415,2.214l0,6.99c0,0.346 0.07,0.623 0.208,0.761a0.786,0.786 0 0 0 0.553,0.208l0.416,0l0.207,-0.07l0,1.869l0,-0.001zm-3.737,-6.85l-3.806,0.207c-0.346,0 -0.692,0.07 -1.107,0.208c-0.346,0.138 -0.692,0.277 -1.038,0.484a3.966,3.966 0 0 0 -0.762,0.762c-0.207,0.346 -0.276,0.692 -0.276,1.176c0,0.623 0.207,1.246 0.622,1.73c0.416,0.485 1.177,0.761 2.146,0.761a4.29,4.29 0 0 0 1.591,-0.276c0.485,-0.208 0.97,-0.485 1.315,-0.9c0.416,-0.415 0.762,-0.969 0.9,-1.523c0.208,-0.553 0.277,-1.176 0.277,-1.73l0,-0.9l0.138,0l0,0.001zm101.315,2.145c-0.07,0.761 -0.208,1.453 -0.484,2.076a6.31,6.31 0 0 1 -1.177,1.592c-0.484,0.484 -1.107,0.9 -1.8,1.176c-0.691,0.277 -1.452,0.416 -2.352,0.416c-1.315,0 -2.353,-0.277 -3.183,-0.762c-0.83,-0.553 -1.523,-1.176 -2.007,-1.937a7.212,7.212 0 0 1 -0.9,-2.077c-0.208,-0.83 -0.277,-1.73 -0.277,-2.837c0,-1.107 0.07,-2.007 0.277,-2.837c0.208,-0.83 0.484,-1.454 0.9,-2.076c0.484,-0.762 1.176,-1.385 2.007,-1.938c0.83,-0.554 1.868,-0.761 3.183,-0.761c0.83,0 1.592,0.138 2.284,0.415c0.692,0.277 1.245,0.623 1.73,1.107a6.31,6.31 0 0 1 1.176,1.592c0.277,0.623 0.485,1.315 0.554,2.076l-2.422,0c-0.07,-0.484 -0.208,-0.9 -0.346,-1.315c-0.208,-0.346 -0.416,-0.692 -0.692,-0.969a2.606,2.606 0 0 0 -1.038,-0.623a4.03,4.03 0 0 0 -1.315,-0.207c-0.554,0 -1.038,0.069 -1.384,0.277c-0.416,0.207 -0.762,0.415 -1.038,0.692a3.428,3.428 0 0 0 -1.108,1.937c-0.207,0.83 -0.277,1.661 -0.277,2.56c0,0.9 0.07,1.731 0.277,2.561c0.208,0.83 0.554,1.454 1.108,1.938c0.346,0.277 0.692,0.485 1.038,0.692c0.415,0.208 0.83,0.277 1.384,0.277c0.484,0 0.969,-0.07 1.384,-0.277c0.415,-0.207 0.761,-0.415 1.038,-0.692c0.277,-0.277 0.484,-0.553 0.623,-0.9c0.138,-0.346 0.276,-0.76 0.346,-1.245l2.491,0l0,0.069zm13.149,-2.353c0,1.107 -0.139,2.215 -0.415,3.183c-0.277,1.039 -0.83,1.869 -1.592,2.7c-0.554,0.484 -1.177,0.9 -1.869,1.245a6.56,6.56 0 0 1 -2.422,0.485c-0.9,0 -1.73,-0.139 -2.422,-0.485a5.53,5.53 0 0 1 -1.868,-1.246c-0.762,-0.76 -1.315,-1.66 -1.592,-2.699a12.173,12.173 0 0 1 -0.415,-3.183c0,-1.107 0.138,-2.214 0.415,-3.183c0.277,-1.038 0.83,-1.869 1.592,-2.7a8.793,8.793 0 0 1 1.868,-1.245a6.56,6.56 0 0 1 2.422,-0.484c0.9,0 1.73,0.138 2.422,0.484a5.53,5.53 0 0 1 1.869,1.246c0.761,0.761 1.315,1.66 1.592,2.699c0.276,0.969 0.415,2.007 0.415,3.183zm-2.422,0c0,-0.83 -0.07,-1.66 -0.277,-2.491a4.625,4.625 0 0 0 -1.038,-2.007c-0.277,-0.277 -0.692,-0.554 -1.107,-0.761c-0.416,-0.208 -0.9,-0.277 -1.454,-0.277c-0.553,0 -1.038,0.069 -1.453,0.277c-0.415,0.207 -0.761,0.415 -1.107,0.76a4.625,4.625 0 0 0 -1.038,2.008c-0.208,0.83 -0.277,1.591 -0.277,2.491c0,0.83 0.069,1.661 0.277,2.491c0.207,0.83 0.553,1.454 1.038,2.007c0.277,0.277 0.692,0.554 1.107,0.762c0.415,0.207 0.9,0.276 1.453,0.276c0.554,0 1.038,-0.069 1.454,-0.276c0.415,-0.208 0.76,-0.416 1.107,-0.762a4.625,4.625 0 0 0 1.038,-2.007c0.207,-0.83 0.277,-1.66 0.277,-2.49l0,-0.001zm21.66,7.197l0,-9.135c0,-0.484 -0.069,-0.968 -0.138,-1.384c-0.069,-0.415 -0.277,-0.761 -0.484,-1.038c-0.208,-0.277 -0.485,-0.553 -0.9,-0.692a3.765,3.765 0 0 0 -1.384,-0.277c-0.415,0 -0.83,0.07 -1.176,0.277c-0.346,0.139 -0.692,0.415 -0.97,0.692a3.529,3.529 0 0 0 -0.968,1.8a10.745,10.745 0 0 0 -0.208,2.145l0,7.682l-2.422,0l0,-9.135c0,-0.485 -0.07,-0.97 -0.138,-1.385c-0.07,-0.415 -0.208,-0.76 -0.485,-1.038c-0.207,-0.276 -0.484,-0.553 -0.9,-0.692a3.765,3.765 0 0 0 -1.383,-0.276a3.15,3.15 0 0 0 -1.385,0.346c-0.415,0.207 -0.76,0.553 -1.038,0.9a4.396,4.396 0 0 0 -0.76,1.73a9.734,9.734 0 0 0 -0.209,1.937l0,7.682l-2.352,0l0,-14.395l2.076,0l0.207,2.076c0.346,-0.83 0.9,-1.453 1.661,-1.799c0.761,-0.415 1.523,-0.623 2.353,-0.623c1.038,0 1.938,0.208 2.7,0.692a4.589,4.589 0 0 1 1.59,2.007c0.208,-0.484 0.416,-0.83 0.762,-1.176c0.277,-0.346 0.692,-0.623 1.038,-0.83c0.415,-0.208 0.83,-0.416 1.246,-0.485c0.415,-0.139 0.9,-0.139 1.315,-0.139c1.591,0 2.837,0.485 3.598,1.454c0.762,0.969 1.177,2.214 1.177,3.875l0,9.481l-2.422,0l0,-0.276l-0.001,-0.001zm17.717,-7.197a10.99,10.99 0 0 1 -0.554,3.46c-0.346,1.038 -0.9,1.938 -1.591,2.63a6.738,6.738 0 0 1 -1.661,1.038c-0.623,0.277 -1.384,0.415 -2.215,0.415c-0.415,0 -0.761,-0.069 -1.176,-0.138c-0.416,-0.07 -0.762,-0.208 -1.177,-0.415c-0.346,-0.139 -0.692,-0.416 -1.038,-0.623c-0.277,-0.277 -0.554,-0.554 -0.761,-0.9l0,7.82l-2.422,0l0,-20.553l2.076,0l0.138,1.868c0.415,-0.692 1.038,-1.246 1.8,-1.66c0.83,-0.416 1.591,-0.554 2.422,-0.554c0.9,0 1.66,0.138 2.353,0.415c0.692,0.277 1.245,0.692 1.73,1.176c0.692,0.692 1.176,1.592 1.522,2.63c0.346,1.038 0.554,2.145 0.554,3.391zm-2.422,0c0,-0.692 -0.07,-1.315 -0.208,-2.007a7.905,7.905 0 0 0 -0.623,-1.8c-0.277,-0.553 -0.692,-0.968 -1.245,-1.314c-0.554,-0.346 -1.177,-0.484 -1.938,-0.484c-0.554,0 -0.969,0.069 -1.315,0.276c-0.346,0.208 -0.692,0.416 -0.969,0.692c-0.623,0.554 -1.038,1.177 -1.246,2.007c-0.207,0.83 -0.346,1.661 -0.346,2.56c0,0.9 0.139,1.8 0.346,2.561c0.208,0.83 0.623,1.454 1.246,2.007c0.277,0.277 0.623,0.485 0.969,0.692c0.346,0.208 0.83,0.277 1.315,0.277c0.761,0 1.453,-0.138 1.938,-0.484c0.553,-0.346 0.968,-0.761 1.245,-1.246a6.889,6.889 0 0 0 0.623,-1.8a8.754,8.754 0 0 0 0.208,-1.937zm16.193,7.059a3.373,3.373 0 0 1 -0.76,0.277c-0.278,0.069 -0.485,0.069 -0.831,0.069c-0.623,0 -1.177,-0.208 -1.523,-0.623a2.418,2.418 0 0 1 -0.553,-1.522l-0.07,0a4.54,4.54 0 0 1 -1.868,1.73c-0.83,0.415 -1.73,0.623 -2.768,0.623c-0.83,0 -1.523,-0.139 -2.146,-0.416a4.93,4.93 0 0 1 -1.522,-1.038c-0.415,-0.415 -0.692,-0.9 -0.9,-1.453a4.29,4.29 0 0 1 -0.277,-1.592c0,-0.484 0.07,-0.969 0.208,-1.453c0.139,-0.484 0.415,-0.969 0.83,-1.384c0.416,-0.415 0.9,-0.761 1.523,-1.107c0.623,-0.277 1.453,-0.485 2.422,-0.554l4.29,-0.277l0,-1.038c0,-0.346 -0.068,-0.761 -0.138,-1.107a1.64,1.64 0 0 0 -0.622,-1.038c-0.277,-0.208 -0.554,-0.415 -0.9,-0.554c-0.346,-0.138 -0.83,-0.207 -1.453,-0.207c-0.623,0 -1.177,0.069 -1.592,0.207c-0.415,0.139 -0.761,0.346 -0.969,0.623c-0.484,0.484 -0.692,1.038 -0.692,1.73l-2.353,0c0,-0.692 0.139,-1.246 0.346,-1.73c0.208,-0.484 0.485,-0.9 0.9,-1.315a5.08,5.08 0 0 1 1.868,-1.176a7.239,7.239 0 0 1 2.492,-0.416c1.384,0 2.491,0.277 3.321,0.762c0.83,0.553 1.385,1.176 1.73,2.007c0.277,0.692 0.416,1.384 0.416,2.214l0,6.99c0,0.346 0.069,0.623 0.207,0.761a0.786,0.786 0 0 0 0.554,0.208l0.415,0l0.208,-0.07l0,1.869l0.207,0zm-3.737,-6.851l-3.806,0.207c-0.346,0 -0.692,0.07 -1.107,0.208c-0.346,0.138 -0.692,0.277 -1.038,0.484a3.966,3.966 0 0 0 -0.761,0.762c-0.208,0.346 -0.277,0.692 -0.277,1.176c0,0.623 0.207,1.246 0.623,1.73c0.415,0.485 1.176,0.761 2.145,0.761a4.29,4.29 0 0 0 1.592,-0.276c0.484,-0.208 0.969,-0.485 1.315,-0.9c0.415,-0.415 0.76,-0.969 0.9,-1.523c0.207,-0.553 0.276,-1.176 0.276,-1.73l0,-0.9l0.138,0l0,0.001zm14.395,6.99l0,-9.136c0,-1.107 -0.208,-1.937 -0.692,-2.56c-0.485,-0.623 -1.246,-0.9 -2.422,-0.9c-0.692,0 -1.315,0.208 -1.8,0.623a4.001,4.001 0 0 0 -1.245,1.592a3.831,3.831 0 0 0 -0.415,1.799c-0.07,0.692 -0.07,1.315 -0.07,1.869l0,6.712l-2.422,0l0,-14.394l2.076,0l0.208,2.145c0.208,-0.415 0.415,-0.761 0.761,-1.107c0.346,-0.346 0.692,-0.554 1.038,-0.761c0.415,-0.208 0.83,-0.346 1.246,-0.485c0.415,-0.138 0.83,-0.138 1.246,-0.138c1.66,0 2.837,0.484 3.667,1.384c0.83,0.9 1.246,2.214 1.246,3.875l0,9.482l-2.422,0zm9.55,2.906c-0.346,0.9 -0.83,1.66 -1.384,2.214c-0.554,0.554 -1.384,0.83 -2.491,0.83c-0.623,0 -1.108,-0.068 -1.454,-0.138c-0.346,-0.069 -0.622,-0.138 -0.692,-0.207l0,-2.145c0.139,0.069 0.346,0.069 0.485,0.138c0.138,0.07 0.346,0.07 0.553,0.07l0.692,0a2.65,2.65 0 0 0 1.315,-0.347c0.346,-0.208 0.623,-0.554 0.83,-1.107l0.9,-2.422l-5.674,-14.395l2.699,0l4.221,11.35l4.014,-11.35l2.491,0l-6.505,17.509z"/>
   </g>
   <path id="svg_5" d="m16.055,15.533l0,51.765l15.365,0c7.82,0 13.287,-3.876 16.401,-11.558c1.661,-4.221 2.491,-9.273 2.491,-15.155c0,-8.097 -1.245,-14.256 -3.806,-18.616c-2.56,-4.29 -7.543,-6.436 -15.086,-6.436l-15.365,0zm30.381,-11.973c5.606,1.8 10.104,5.19 13.495,10.035a35.985,35.985 0 0 1 5.675,12.803c0.968,4.567 1.522,8.927 1.522,13.149c0,10.519 -2.145,19.446 -6.367,26.713c-5.744,9.896 -14.602,14.81 -26.574,14.81l-34.187,0l0,-79.24l34.187,0c4.913,0.07 8.996,0.623 12.249,1.73zm42.837,33.287c-2.145,2.145 -3.53,5.12 -4.083,8.858l26.298,0c-0.277,-3.945 -1.661,-6.99 -4.083,-9.066c-2.422,-2.076 -5.467,-3.114 -9.066,-3.114c-3.875,0.07 -6.92,1.107 -9.066,3.322m22.907,-13.287c4.083,1.799 7.474,4.705 10.104,8.65c2.422,3.46 3.944,7.543 4.636,12.11c0.416,2.7 0.623,6.506 0.485,11.627l-42.56,0c0.276,5.952 2.283,10.035 6.09,12.457c2.352,1.453 5.12,2.214 8.373,2.214c3.46,0 6.298,-0.83 8.512,-2.63c1.8,-1.522 2.215,-2.283 3.114,-5.536l15.64,0c-0.415,5.052 -2.283,8.512 -5.674,12.111c-5.26,5.675 -12.526,8.512 -22.007,8.512c-7.751,0 -14.672,-2.422 -20.554,-7.197c-5.951,-4.775 -8.927,-12.664 -8.927,-23.46c0,-10.173 2.63,-17.924 8.027,-23.391c5.398,-5.398 12.388,-8.097 20.9,-8.097c5.121,-0.139 9.758,0.83 13.84,2.63m31.696,38.823c0.346,2.699 1.038,4.637 2.077,5.813c1.937,2.007 5.467,3.045 10.588,3.045c3.045,0 5.398,-0.415 7.197,-1.315c1.8,-0.9 2.699,-2.214 2.699,-4.014c0,-1.73 -0.692,-3.044 -2.145,-3.944c-1.454,-0.9 -6.782,-2.422 -15.987,-4.637c-6.643,-1.66 -11.349,-3.737 -14.048,-6.159c-2.768,-2.422 -4.083,-5.952 -4.083,-10.519c0,-5.398 2.145,-10.035 6.367,-13.98c4.221,-3.875 10.242,-5.812 17.924,-5.812c7.266,0 13.218,1.453 17.854,4.36c4.637,2.906 7.267,7.958 7.959,15.155l-15.294,0c-0.208,-1.938 -0.762,-3.53 -1.661,-4.706c-1.73,-2.076 -4.568,-3.114 -8.65,-3.114c-3.323,0 -5.745,0.485 -7.198,1.592c-1.384,1.038 -2.145,2.214 -2.145,3.668c0,1.799 0.761,3.045 2.283,3.806c1.523,0.83 6.852,2.214 15.987,4.221c6.09,1.454 10.726,3.599 13.702,6.505c3.045,2.907 4.498,6.575 4.498,11.004c0,5.813 -2.145,10.519 -6.436,14.187c-4.36,3.668 -11.003,5.467 -20.069,5.467c-9.204,0 -15.986,-1.938 -20.415,-5.813c-4.36,-3.876 -6.575,-8.858 -6.575,-14.81l15.571,0zm98.063,2.076c2.422,-2.699 3.668,-6.99 3.668,-12.941c0,-5.536 -1.177,-9.827 -3.53,-12.734c-2.353,-2.906 -5.398,-4.36 -9.342,-4.36c-5.33,0 -8.997,2.492 -11.004,7.544c-1.038,2.699 -1.592,6.02 -1.592,9.965c0,3.391 0.554,6.436 1.73,9.135c2.007,4.914 5.744,7.405 11.073,7.405c3.53,0.07 6.505,-1.315 8.997,-4.014m-5.19,-42.076c3.736,1.523 6.712,4.36 8.996,8.443l0,-8.443l15.017,0l0,55.571c0,7.543 -1.245,13.287 -3.806,17.093c-4.36,6.644 -12.734,9.897 -25.121,9.897c-7.474,0 -13.564,-1.454 -18.27,-4.43c-4.706,-2.906 -7.336,-7.335 -7.82,-13.148l16.678,0c0.415,1.8 1.107,3.045 2.076,3.875c1.661,1.384 4.43,2.076 8.305,2.076c5.467,0 9.204,-1.868 11.072,-5.536c1.246,-2.353 1.869,-6.298 1.869,-11.834l0,-3.737c-1.453,2.491 -3.045,4.36 -4.775,5.606c-3.045,2.353 -6.99,3.46 -11.834,3.46c-7.543,0 -13.495,-2.63 -17.993,-7.89c-4.498,-5.259 -6.713,-12.456 -6.713,-21.453c0,-8.72 2.145,-15.986 6.505,-21.937c4.29,-5.952 10.45,-8.859 18.34,-8.859c2.768,-0.069 5.328,0.416 7.473,1.246m75.987,3.46c3.806,3.184 5.744,8.443 5.744,15.779l0,39.378l-15.71,0l0,-35.57c0,-3.046 -0.415,-5.468 -1.246,-7.06c-1.522,-2.976 -4.36,-4.498 -8.58,-4.498c-5.191,0 -8.651,2.145 -10.59,6.574c-1.037,2.353 -1.522,5.33 -1.522,8.928l0,31.695l-15.294,0l0,-58.547l14.74,0l0,8.582c1.939,-3.045 3.807,-5.19 5.537,-6.505c3.114,-2.353 7.128,-3.53 11.972,-3.53c6.229,0 11.142,1.592 14.949,4.775m11.349,-2.837l15.571,0l0,57.993l-15.571,0l0,-57.993zm15.502,-7.474l-15.502,0l0,-14.118l15.502,0l0,14.118zm-154.118,7.474l15.502,0l0,57.993l-15.502,0l0,-57.993zm15.502,-7.474l-15.502,0l0,-14.118l15.502,0l0,14.118zm143.114,18.2l0,-10.725l8.097,0l0,-16.541l15.225,0l0,16.47l9.55,0l0,10.727l-9.55,0l0,31.073c0,2.422 0.346,3.875 0.9,4.498c0.622,0.623 2.49,0.9 5.605,0.9c0.484,0 0.969,0 1.453,-0.07c0.485,0 1.038,-0.068 1.523,-0.138l0,11.488l-7.267,0.346c-7.266,0.208 -12.18,-0.969 -14.81,-3.806c-1.73,-1.73 -2.63,-4.429 -2.63,-8.166l0,-36.055l-8.096,0l0,-0.001zm46.09,-25.743c-0.415,-0.139 -1.038,-0.208 -1.8,-0.208l-0.691,0l0,3.391l1.176,0c0.692,0 1.246,-0.138 1.661,-0.415c0.415,-0.277 0.623,-0.761 0.623,-1.384c0,-0.692 -0.346,-1.177 -0.969,-1.384zm-5.536,9.342l0,-11.626l5.673,0c0.97,0.07 1.661,0.277 2.284,0.623c1.038,0.553 1.592,1.453 1.592,2.768c0,0.969 -0.277,1.66 -0.83,2.076c-0.554,0.484 -1.246,0.692 -2.008,0.83c0.693,0.139 1.315,0.346 1.661,0.693c0.692,0.553 1.038,1.453 1.038,2.63l0,1.037c0,0.07 0,0.208 0.07,0.346c0,0.139 0,0.208 0.069,0.346l0.138,0.346l-2.906,0c-0.07,-0.346 -0.139,-0.9 -0.208,-1.591c0,-0.692 -0.07,-1.177 -0.208,-1.454a1.248,1.248 0 0 0 -0.83,-0.83c-0.277,-0.138 -0.554,-0.208 -1.038,-0.208l-0.623,-0.069l-0.623,0l0,4.083l-3.252,0l0.001,0zm-1.592,-11.902c-1.66,1.73 -2.491,3.737 -2.491,6.09c0,2.422 0.83,4.498 2.56,6.228c1.661,1.73 3.737,2.561 6.09,2.561c2.422,0 4.43,-0.9 6.09,-2.56c1.661,-1.73 2.56,-3.807 2.56,-6.16s-0.83,-4.36 -2.49,-6.09c-1.662,-1.73 -3.738,-2.63 -6.16,-2.63c-2.422,-0.069 -4.429,0.762 -6.159,2.561zm13.495,13.633c-2.007,2.007 -4.498,2.976 -7.336,2.976c-2.976,0 -5.467,-1.038 -7.474,-3.045c-2.007,-2.007 -3.045,-4.498 -3.045,-7.474c0,-3.045 1.107,-5.606 3.253,-7.612c2.076,-1.938 4.498,-2.838 7.197,-2.838c2.907,0 5.329,1.038 7.405,3.114c2.007,2.007 3.114,4.499 3.114,7.405c0.07,2.907 -0.969,5.398 -3.114,7.474z"/>
  </g>
 </g>
</svg>